<svg width="31" height="30" viewBox="0 0 31 30" fill="none" xmlns="http://www.w3.org/2000/svg">
<path fill-rule="evenodd" clip-rule="evenodd" d="M25.8021 1.25C27.8733 1.25 29.5521 2.92894 29.5521 5V25C29.5521 27.0711 27.8733 28.75 25.8021 28.75H5.80212C3.73106 28.75 2.05212 27.0711 2.05212 25V5C2.05212 2.92894 3.73106 1.25 5.80212 1.25H25.8021ZM25.8021 3.75C26.4925 3.75 27.0521 4.30965 27.0521 5V25C27.0521 25.6904 26.4925 26.25 25.8021 26.25H19.5521V17.4999H22.1474C22.6854 17.4999 23.163 17.1556 23.3333 16.6451L23.887 14.9839C24.0894 14.3767 23.6375 13.7499 22.9976 13.7499H19.5521V11.2499C19.5521 10.6249 20.1771 9.9999 20.8021 9.9999H23.3021C23.9925 9.9999 24.5521 9.44025 24.5521 8.7499V7.89241C24.5521 7.48864 24.2943 7.12662 23.9038 7.02359C22.2653 6.59119 20.8021 6.59119 20.8021 6.59119C17.6771 6.59119 15.8021 8.7499 15.8021 10.6249V13.7499H13.3021C12.6118 13.7499 12.0521 14.3095 12.0521 14.9999V16.2499C12.0521 16.9402 12.6118 17.4999 13.3021 17.4999H15.8021V26.25H5.80212C5.11177 26.25 4.55212 25.6904 4.55212 25V5C4.55212 4.30965 5.11177 3.75 5.80212 3.75H25.8021Z" fill="#0F0F0F"/>
</svg>
