<svg width="31" height="30" viewBox="0 0 31 30" fill="none" xmlns="http://www.w3.org/2000/svg">
<path fill-rule="evenodd" clip-rule="evenodd" d="M15.2139 22.5C19.3561 22.5 22.7139 19.1421 22.7139 15C22.7139 10.8579 19.3561 7.5 15.2139 7.5C11.0718 7.5 7.71393 10.8579 7.71393 15C7.71393 19.1421 11.0718 22.5 15.2139 22.5ZM15.2139 20C17.9753 20 20.2139 17.7614 20.2139 15C20.2139 12.2386 17.9753 10 15.2139 10C12.4525 10 10.2139 12.2386 10.2139 15C10.2139 17.7614 12.4525 20 15.2139 20Z" fill="#0F0F0F"/>
<path d="M22.7139 6.25C22.0236 6.25 21.4639 6.80965 21.4639 7.5C21.4639 8.19035 22.0236 8.75 22.7139 8.75C23.4043 8.75 23.9639 8.19035 23.9639 7.5C23.9639 6.80965 23.4043 6.25 22.7139 6.25Z" fill="#0F0F0F"/>
<path fill-rule="evenodd" clip-rule="evenodd" d="M2.28138 5.34508C1.46393 6.94941 1.46393 9.04961 1.46393 13.25V16.75C1.46393 20.9504 1.46393 23.0506 2.28138 24.6549C3.00043 26.0661 4.14778 27.2135 5.559 27.9325C7.16334 28.75 9.26354 28.75 13.4639 28.75H16.9639C21.1643 28.75 23.2646 28.75 24.8688 27.9325C26.2801 27.2135 27.4274 26.0661 28.1464 24.6549C28.9639 23.0506 28.9639 20.9504 28.9639 16.75V13.25C28.9639 9.04961 28.9639 6.94941 28.1464 5.34508C27.4274 3.93385 26.2801 2.7865 24.8688 2.06745C23.2646 1.25 21.1643 1.25 16.9639 1.25H13.4639C9.26354 1.25 7.16334 1.25 5.559 2.06745C4.14778 2.7865 3.00043 3.93385 2.28138 5.34508ZM16.9639 3.75H13.4639C11.3225 3.75 9.86674 3.75195 8.74153 3.84387C7.64548 3.93342 7.08498 4.09574 6.69398 4.29496C5.75317 4.77434 4.98827 5.53924 4.50889 6.48005C4.30967 6.87105 4.14735 7.43155 4.0578 8.5276C3.96588 9.65281 3.96393 11.1086 3.96393 13.25V16.75C3.96393 18.8915 3.96588 20.3471 4.0578 21.4724C4.14735 22.5685 4.30967 23.129 4.50889 23.52C4.98827 24.4608 5.75317 25.2256 6.69398 25.705C7.08498 25.9042 7.64548 26.0666 8.74153 26.1561C9.86674 26.248 11.3225 26.25 13.4639 26.25H16.9639C19.1054 26.25 20.5611 26.248 21.6863 26.1561C22.7824 26.0666 23.3429 25.9042 23.7339 25.705C24.6747 25.2256 25.4396 24.4608 25.9189 23.52C26.1182 23.129 26.2806 22.5685 26.3701 21.4724C26.4619 20.3471 26.4639 18.8915 26.4639 16.75V13.25C26.4639 11.1086 26.4619 9.65281 26.3701 8.5276C26.2806 7.43155 26.1182 6.87105 25.9189 6.48005C25.4396 5.53924 24.6747 4.77434 23.7339 4.29496C23.3429 4.09574 22.7824 3.93342 21.6863 3.84387C20.5611 3.75195 19.1054 3.75 16.9639 3.75Z" fill="#0F0F0F"/>
</svg>
