<svg width="20" height="20" viewBox="0 0 20 20" fill="none" xmlns="http://www.w3.org/2000/svg">
<g clip-path="url(#clip0_2076_229)">
<path d="M9.99978 7.74512C8.75431 7.74512 7.74493 8.75449 7.74493 9.99996C7.74493 11.2451 8.75435 12.2545 9.99978 12.2545C11.2449 12.2545 12.2543 11.2451 12.2543 9.99996C12.2543 8.75449 11.2449 7.74512 9.99978 7.74512Z" fill="black"/>
<path d="M19.966 9.95559L16.0205 8.90762C15.7943 7.65578 15.1891 6.53348 14.3273 5.67234C13.4662 4.81055 12.3435 4.205 11.0917 3.97914L10.0441 0.0339844C10.0387 0.0141406 10.0207 0 9.9998 0C9.97891 0 9.9609 0.0141406 9.95555 0.0339844L8.90793 3.97918C7.65574 4.205 6.53309 4.81059 5.67234 5.67238C4.8102 6.53312 4.20492 7.65617 3.97914 8.90801L0.0339453 9.95559C0.0141797 9.96086 0 9.97891 0 9.9998C0 10.0207 0.0141797 10.0387 0.0339453 10.0441L3.97918 11.0917C4.20496 12.3435 4.81019 13.4662 5.67238 14.3273C6.53312 15.1891 7.65578 15.7943 8.90762 16.0205L9.95559 19.9657C9.9609 19.9855 9.97895 19.9996 9.99984 19.9996C10.0207 19.9996 10.0387 19.9855 10.0441 19.9657L11.0921 16.0205C12.3436 15.7943 13.4662 15.1891 14.3273 14.3273C15.1891 13.4662 15.7943 12.3435 16.0205 11.0921L19.966 10.0441C19.9859 10.0388 20 10.0207 20 9.99984C20 9.97891 19.9858 9.96086 19.966 9.95559ZM13.1883 13.1883C12.3697 14.0055 11.2474 14.5085 9.9998 14.5092C8.75184 14.5085 7.62992 14.0055 6.81129 13.1883C5.99375 12.3697 5.49082 11.2474 5.49043 9.9998C5.49082 8.75187 5.99371 7.62992 6.81129 6.81129C7.62992 5.99406 8.75187 5.49078 9.9998 5.49043C11.2474 5.49074 12.3697 5.99406 13.1883 6.81129C14.0055 7.62992 14.5085 8.75187 14.5092 9.9998C14.5085 11.2474 14.0055 12.3697 13.1883 13.1883Z" fill="black"/>
</g>
<defs>
<clipPath id="clip0_2076_229">
<rect width="20" height="20" fill="white"/>
</clipPath>
</defs>
</svg>
