<svg width="20" height="20" viewBox="0 0 20 20" fill="none" xmlns="http://www.w3.org/2000/svg">
<path d="M13.6375 3.4375H17.3875C17.012 7.02634 15.3197 10.3486 12.6375 12.7625C9.9337 15.1922 6.42256 16.5289 2.78749 16.5125H1.82499V13L4.99999 11.9L6.04999 13.675L6.78749 15L8.12499 14.225C10.5197 12.835 12.5604 10.9098 14.0875 8.6L15 7.1625L13.475 6.3625L12.225 5.7125L13.5875 3.4375M13.5875 1.875C13.3179 1.87702 13.0534 1.94818 12.8192 2.08169C12.585 2.21519 12.389 2.40657 12.25 2.6375L10.9375 4.9125C10.8262 5.09433 10.7535 5.29717 10.7242 5.50835C10.6948 5.71952 10.7093 5.93448 10.7668 6.13979C10.8243 6.3451 10.9235 6.53635 11.0583 6.70156C11.193 6.86678 11.3604 7.00242 11.55 7.1L12.8 7.75C11.4045 9.85717 9.53887 11.6116 7.34999 12.875L6.24999 11.1125C6.12125 10.8906 5.93987 10.7039 5.72187 10.5687C5.50387 10.4336 5.25595 10.3542 4.99999 10.3375C4.8254 10.3371 4.65205 10.3667 4.48748 10.425L1.24999 11.525C0.955176 11.6416 0.702826 11.8452 0.526446 12.1087C0.350066 12.3721 0.258004 12.683 0.262485 13V16.5625C0.262485 16.9769 0.427105 17.3743 0.720131 17.6674C1.01316 17.9604 1.41058 18.125 1.82499 18.125H2.76249C6.77433 18.1261 10.6448 16.643 13.6287 13.9614C16.6126 11.2798 18.4991 7.58918 18.925 3.6C18.9458 3.38197 18.921 3.16198 18.852 2.95408C18.7831 2.74619 18.6715 2.55497 18.5245 2.39264C18.3774 2.2303 18.1981 2.10042 17.9981 2.01129C17.798 1.92216 17.5815 1.87574 17.3625 1.875H13.5875Z" fill="black"/>
</svg>
