<svg width="31" height="30" viewBox="0 0 31 30" fill="none" xmlns="http://www.w3.org/2000/svg">
<path d="M8.14317 10.0077C8.28601 8.878 9.75414 7.34268 10.9193 7.51304L10.9174 7.51118C12.0513 7.72665 12.9489 9.67826 13.455 10.5558C13.8137 11.1925 13.5808 11.8376 13.2463 12.1098C12.795 12.4735 12.0894 12.9754 12.2375 13.4792C12.5007 14.375 15.6257 17.5 17.1627 18.3884C17.7444 18.7246 18.1663 17.8377 18.5265 17.3834C18.7883 17.0339 19.4339 16.825 20.0692 17.17C21.0179 17.7225 21.9117 18.3646 22.7382 19.0875C23.1509 19.4325 23.2478 19.9424 22.9618 20.4812C22.458 21.4304 21.001 22.682 19.9434 22.4276C18.0962 21.9835 10.6257 19.0875 8.22609 10.6975C8.09114 10.3006 8.12511 10.1506 8.14317 10.0077Z" fill="#0F0F0F"/>
<path fill-rule="evenodd" clip-rule="evenodd" d="M15.6257 28.75C14.0962 28.75 13.2499 28.5859 11.8757 28.125L9.24371 29.441C7.58145 30.2721 5.62567 29.0634 5.62567 27.2049V24.375C2.93386 21.865 1.87567 18.9709 1.87567 15C1.87567 7.40609 8.03176 1.25 15.6257 1.25C23.2195 1.25 29.3757 7.40609 29.3757 15C29.3757 22.5939 23.2195 28.75 15.6257 28.75ZM8.12567 23.2879L7.33061 22.5465C5.23926 20.5965 4.37567 18.4164 4.37567 15C4.37567 8.7868 9.41247 3.75 15.6257 3.75C21.8389 3.75 26.8757 8.7868 26.8757 15C26.8757 21.2132 21.8389 26.25 15.6257 26.25C14.3935 26.25 13.8157 26.1387 12.6706 25.7547L11.6863 25.4246L8.12567 27.2049V23.2879Z" fill="#0F0F0F"/>
</svg>
